<svg id="Layer_1" data-name="Layer 1" xmlns="http://www.w3.org/2000/svg" xmlns:xlink="http://www.w3.org/1999/xlink" viewBox="0 0 512 512"><defs><linearGradient id="linear-gradient" x1="256" y1="511.99" x2="256" y2="-85.02" gradientUnits="userSpaceOnUse"><stop offset="0" stop-color="#231f20"/><stop offset="1" stop-color="#58595b"/></linearGradient></defs><title>search</title><path d="M503.4,438.34l-152-152.21a188.91,188.91,0,0,0,26.81-95.48C378.89,86.09,294.84.75,190.4,0S.75,83.43,0,188,83.3,377.91,187.72,378.65a187.94,187.94,0,0,0,98.83-27.34L438.44,503.39a29.63,29.63,0,0,0,41.77,0l23.2-23.21A29.7,29.7,0,0,0,503.4,438.34ZM188,335.3c-80.54-.55-145.34-66.37-144.76-147s66.3-145.53,146.84-145,145.33,66.38,144.76,147A146.07,146.07,0,0,1,188,335.3Z" fill="url(#linear-gradient)"/></svg>